<svg width="60" height="34" viewBox="0 0 60 34" fill="none" xmlns="http://www.w3.org/2000/svg">
<g clip-path="url(#clip0_1701_247)">
<path d="M0.00219727 34H59.9978V0H0.00219727V34Z" fill="black"/>
<path d="M0.696777 33.3902H59.3583V0.618896H0.696777V33.3902Z" fill="white"/>
<path d="M13.6363 18.7718L14.7711 19.9331L15.9438 18.7795H16.8833V19.136L15.4138 20.5864L16.8833 22.1371V18.7795H19.5358C20.0375 18.7795 20.7731 18.9865 20.7731 19.9149C20.7731 21.2172 19.8052 21.2326 19.2751 21.2326H17.8977V22.4936H15.9343L14.7349 21.2579L13.5063 22.4845H9.60243V18.7711H13.6363V18.7718V18.7718ZM25.6535 18.7718H28.999V19.5724H26.6773V20.2678H28.9344V20.9723H26.6773V21.7077H28.999V22.4852H25.6535V18.7718V18.7718ZM22.2812 22.4943H21.2574V18.7802H23.9185C24.4218 18.7802 25.1471 18.9795 25.1471 19.7745C25.1471 20.2236 24.9983 20.5541 24.4399 20.8032C24.9234 20.853 25.1101 21.1351 25.1101 21.7315L25.1471 22.4943H24.1509L24.1233 21.8136C24.1146 21.4993 23.9744 21.1842 23.6216 21.1842H22.2812V22.4943V22.4943ZM35.4239 20.2194C36.6832 20.2755 36.7871 20.8362 36.7871 21.4326C36.7871 22.1287 36.1453 22.502 35.4751 22.502H33.3258V21.707H35.0009C35.2853 21.707 35.7082 21.707 35.7082 21.3491C35.7082 21.1793 35.6334 21.072 35.3309 21.0425C35.096 21.0221 34.8604 21.0076 34.6245 20.999C33.4881 20.9723 33.2242 20.4692 33.2242 19.8559C33.2242 19.1598 33.7732 18.7788 34.4434 18.7788H36.5926V19.5752H35.0199C34.6623 19.5794 34.2756 19.5373 34.2756 19.8987C34.2756 20.1261 34.467 20.1717 34.708 20.1934C34.7915 20.1941 35.3498 20.2194 35.4239 20.2194V20.2194ZM31.5901 20.2194C32.8486 20.2755 32.9533 20.8362 32.9533 21.4326C32.9533 22.1287 32.3107 22.502 31.6413 22.502H29.4912V21.707H31.1664C31.4499 21.707 31.8744 21.707 31.8744 21.3491C31.8744 21.1793 31.7996 21.072 31.4971 21.0425C31.3617 21.0256 30.8639 21.0004 30.7907 20.999C29.6543 20.9723 29.3904 20.4692 29.3904 19.8559C29.3904 19.1598 29.9394 18.7788 30.6088 18.7788H32.7588V19.5752H31.1861C30.8277 19.5794 30.4418 19.5373 30.4418 19.8987C30.4418 20.1261 30.6324 20.1717 30.875 20.1934C30.9577 20.1941 31.516 20.2194 31.5901 20.2194V20.2194ZM18.1025 16.1103H17.0787V12.3962H19.7398C20.2422 12.3962 20.9692 12.5955 20.9692 13.3905C20.9692 13.8389 20.8203 14.1708 20.2619 14.4192C20.7455 14.469 20.9321 14.7511 20.9321 15.3475L20.9692 16.1103H19.9737L19.9453 15.4303C19.9359 15.1153 19.7973 14.8009 19.4429 14.8009H18.1033V16.1103H18.1025V16.1103ZM21.4905 16.1103H22.5135V12.392H21.4905V16.1103ZM13.1472 12.3962H16.4919V13.1961H14.1726V13.8929H16.4281V14.5981H14.1726V15.3314H16.4919V16.1103H13.1472V12.3962V12.3962ZM5.67727 16.1103H7.73829V13.354L9.10548 16.1103H10.0364L11.4358 13.3996V16.1103H12.4589V12.3962H10.8263L9.57014 14.8879L8.31872 12.3962H6.71369V15.9734L4.92674 12.3962H3.57372L1.74976 16.1103H2.82949L3.22878 15.2816H5.2709L5.67727 16.1103V16.1103ZM28.4028 15.2837H26.3615L25.9614 16.1124H24.6116C23.4767 16.1124 22.9735 15.2647 22.9979 14.2367C23.0325 12.7112 24.0445 12.3941 24.51 12.3941H25.8457V13.2024H25.2133C24.5336 13.2024 24.0036 13.2656 24.0036 14.1357V14.4051C24.0083 15.0598 24.3934 15.2149 24.6399 15.2605C24.7006 15.2731 24.8124 15.278 24.8534 15.2752L25.296 15.2731L26.7057 12.3962H28.0603L29.8047 15.8822V12.3941H31.316L33.0423 14.9658V12.3941H34.0653V16.1124H32.6698L30.8277 13.3926V16.1124H28.8084L28.4028 15.2837V15.2837Z" fill="#00ACEC"/>
<path d="M36.6012 18.2005V1.66858H1.83789V14.4521L3.14129 11.8334H5.35588L6.082 13.3911V11.8334H8.77937L9.59842 13.3757L10.3986 11.8334H19.9083C20.28 11.8334 20.7824 11.9498 21.0069 12.314V11.8334H22.9978V12.3968C23.2585 12.0825 23.6491 11.8334 24.4115 11.8334H28.4689L29.2132 13.3413V11.8334H31.6144L32.4697 13.1434V11.8334H34.6654V16.6737H32.3027L31.3159 15.2485V16.6737H28.3201L27.8365 15.7285H26.8867L26.4402 16.6737H24.5603C24.1508 16.6414 23.2026 16.4912 22.9978 15.9285V16.6737H19.3877V15.6134C19.3877 15.4632 19.2388 15.2815 19.0341 15.2815H18.6434V16.6737H10.9569V15.5797L10.3805 16.6737H8.81717L8.22178 15.5629V16.6737H5.15112L4.74159 15.812H3.75479L3.32715 16.6737H1.83789V32.3096H36.6012V22.7265C36.4153 22.9096 36.1176 23.0584 35.6711 23.0584H32.7666V22.6935C32.5437 22.9096 32.2279 23.0584 31.7247 23.0584H23.5373V22.0472C23.5184 21.9139 23.5932 21.6325 23.1837 21.6325H22.849V23.0584H20.6714V21.4157C20.4477 21.749 19.965 21.7645 19.6484 21.7813H18.4938V23.0584H15.5909L14.7529 22.1462L13.8599 23.0584H8.929V18.2005H13.9347L14.8089 19.0791L15.7027 18.2005H19.6665C19.9453 18.216 20.4753 18.3325 20.6714 18.5977V18.2005H24.0586C24.3563 18.2005 24.9328 18.3156 25.1754 18.6637V18.2005H29.4179V18.6307C29.6408 18.3661 29.9952 18.2005 30.5339 18.2005H33.2509V18.6152C33.4557 18.3493 33.996 18.2005 34.3126 18.2005H36.6012V18.2005ZM46.1684 17.7781C46.1684 18.3991 43.5151 17.7143 43.5151 19.2243C43.5151 19.9141 44.1412 20.2263 44.8453 20.2263C45.4005 20.2263 45.8266 20.1239 46.2471 19.7752L46.3983 20.1302H47.7364C47.66 20.0011 47.6482 19.8327 47.6482 19.6432V18.0897C47.6482 17.2968 47.5411 16.7137 45.7769 16.7137C44.3042 16.7137 43.7419 17.1255 43.7419 17.8286H45.165C45.2005 17.5438 45.4785 17.5066 45.6848 17.5066C45.8423 17.5066 46.1684 17.5381 46.1684 17.7781V17.7781ZM53.8675 19.6825V20.1267H55.1968V15.5615H53.7186V17.1403C53.4044 16.8105 53.0775 16.7094 52.6082 16.7094C51.7182 16.7094 51.0283 17.4252 51.0283 18.5289C51.0283 19.4671 51.5977 20.2214 52.7216 20.2214C53.1996 20.2214 53.5194 20.0888 53.8675 19.6825V19.6825ZM50.6448 17.8525V16.7284C50.581 16.7221 50.5164 16.7094 50.4518 16.7094C49.8769 16.7094 49.5131 16.9564 49.3067 17.4771H49.2926V16.8049H47.9482V20.126H49.4272V18.818C49.4272 18.1016 49.7336 17.8476 50.3384 17.8476L50.6448 17.8525V17.8525ZM41.8124 17.2982C41.762 16.8238 41.4273 16.5509 40.9012 16.5509C40.3105 16.5509 39.9546 17.0013 39.9546 17.882C39.9546 18.5226 40.1113 19.124 40.9642 19.124C41.5061 19.124 41.762 18.7893 41.8266 18.3514H43.4411C43.293 19.5303 42.3456 20.239 40.9949 20.239C39.3017 20.239 38.2763 19.3155 38.2763 17.8308C38.2763 16.3537 39.4001 15.4345 40.8311 15.4345C42.396 15.4345 43.2717 16.1256 43.4072 17.2975H41.8124V17.2982V17.2982Z" fill="#00ACEC"/>
<path d="M17.8985 20.4713H19.1735C19.5917 20.4713 19.7406 20.2552 19.7406 20.0068C19.7406 19.8243 19.6059 19.5808 19.1775 19.5808H17.8985V20.4713ZM12.9479 19.5724H10.627V20.2678H12.8826V20.9723H10.627V21.7077H12.9857L14.1119 20.5871L13.1157 19.5759L12.9479 19.5724ZM22.2812 20.4222H23.5563C23.9744 20.4222 24.1233 20.2559 24.1233 20.0068C24.1233 19.8243 23.9886 19.5808 23.5602 19.5808H22.2812V20.4222V20.4222ZM18.1025 14.0381H19.3775C19.7965 14.0381 19.9445 13.8725 19.9445 13.6234C19.9445 13.4417 19.8099 13.1961 19.3814 13.1961H18.1025V14.0381V14.0381ZM4.87554 14.4823H3.62964L4.24078 13.1835L4.87554 14.4823ZM27.3712 13.1856L26.7616 14.4837H28.0122L27.3712 13.1856Z" fill="white"/>
<path d="M57.9501 21.1442L45.4272 32.3011H47.2055L57.9501 22.7286V21.1442Z" fill="#3B4095"/>
<path d="M57.9501 24.2661L48.9326 32.3012H50.7093L57.9501 25.8512V24.2661Z" fill="#00ACEC"/>
<path d="M57.9503 27.3887L52.4351 32.3012H54.2149L57.9503 28.9724V27.3887Z" fill="#6CB35E"/>
<path d="M37.873 30.5442C37.8736 30.3125 37.9253 30.0832 38.0254 29.8693C38.1254 29.6554 38.2717 29.4612 38.4561 29.2978C38.6404 29.1344 38.859 29.0049 39.0995 28.9168C39.34 28.8287 39.5976 28.7837 39.8577 28.7843C40.1171 28.7841 40.3741 28.8295 40.6138 28.9179C40.8535 29.0063 41.0713 29.1359 41.2548 29.2993C41.4383 29.4628 41.5837 29.6569 41.6829 29.8705C41.7821 30.0841 41.8331 30.313 41.8329 30.5442C41.834 30.776 41.7838 31.0057 41.685 31.2202C41.5863 31.4347 41.441 31.6297 41.2575 31.7941C41.074 31.9584 40.8559 32.0889 40.6157 32.1779C40.3755 32.267 40.1179 32.313 39.8577 32.3131C39.5969 32.3134 39.3386 32.2678 39.0976 32.179C38.8567 32.0902 38.6377 31.9599 38.4534 31.7956C38.269 31.6313 38.1228 31.4361 38.0233 31.2214C37.9237 31.0067 37.8726 30.7765 37.873 30.5442V30.5442Z" fill="#00ACEC"/>
<path d="M41.5943 30.5441C41.5944 30.3409 41.5495 30.1397 41.4623 29.952C41.375 29.7643 41.2471 29.5937 41.0858 29.4501C40.9246 29.3064 40.7331 29.1925 40.5223 29.1149C40.3116 29.0373 40.0858 28.9974 39.8577 28.9976C39.6294 28.997 39.4031 29.0366 39.1919 29.1141C38.9807 29.1915 38.7888 29.3053 38.627 29.449C38.4653 29.5927 38.3369 29.7633 38.2493 29.9512C38.1617 30.1392 38.1166 30.3406 38.1165 30.5441C38.1165 30.955 38.2997 31.3491 38.6258 31.6397C38.9519 31.9302 39.3942 32.0934 39.8554 32.0934C40.3166 32.0934 40.7589 31.9302 41.085 31.6397C41.4111 31.3491 41.5943 30.955 41.5943 30.5441V30.5441Z" fill="white"/>
<path d="M40.8421 31.5329H40.5216L39.8876 30.6228H39.3915V31.5329H39.1213V29.5597H40.0853C40.2719 29.5597 40.4586 29.5695 40.6248 29.6572C40.7909 29.7407 40.8729 29.9162 40.8729 30.0818C40.8729 30.4705 40.5681 30.6136 40.1735 30.6228L40.8421 31.5329V31.5329Z" fill="#00ACEC"/>
<path d="M39.8066 30.4332C40.1177 30.4332 40.5997 30.4796 40.5997 30.0768C40.5997 29.7723 40.2988 29.7358 40.024 29.7358H39.3923V30.4332H39.8066ZM46.1684 18.6595C46.1724 19.2812 45.9581 19.4777 45.4392 19.4777C45.147 19.4777 44.969 19.3633 44.969 19.1991C44.9698 18.7668 45.6857 18.8686 46.1684 18.6595V18.6595ZM53.7683 18.4974C53.7683 18.8833 53.6053 19.27 53.0926 19.27C52.6098 19.27 52.5106 18.8651 52.5106 18.5156C52.5106 18.1494 52.6452 17.7297 53.1367 17.7297C53.6265 17.7297 53.7683 18.129 53.7683 18.4974Z" fill="white"/>
</g>
<defs>
<clipPath id="clip0_1701_247">
<rect width="60" height="34" fill="white"/>
</clipPath>
</defs>
</svg>
